<svg width="584" height="512" viewBox="0 0 584 512" fill="none" xmlns="http://www.w3.org/2000/svg">
<g clip-path="url(#clip0)" filter="url(#filter0_d)">
<path d="M284.37 148.26L100 300.11V464C100 468.243 101.686 472.313 104.686 475.314C107.687 478.314 111.757 480 116 480L228.06 479.71C232.29 479.689 236.339 477.994 239.322 474.996C242.305 471.997 243.98 467.94 243.98 463.71V368C243.98 363.757 245.666 359.687 248.666 356.686C251.667 353.686 255.737 352 259.98 352H323.98C328.223 352 332.293 353.686 335.294 356.686C338.294 359.687 339.98 363.757 339.98 368V463.64C339.973 465.745 340.382 467.831 341.184 469.778C341.985 471.725 343.162 473.495 344.649 474.986C346.135 476.477 347.901 477.66 349.845 478.467C351.79 479.275 353.875 479.69 355.98 479.69L468 480C472.243 480 476.313 478.314 479.314 475.314C482.314 472.313 484 468.243 484 464V300L299.67 148.26C297.503 146.513 294.803 145.561 292.02 145.561C289.237 145.561 286.537 146.513 284.37 148.26V148.26ZM575.6 251.47L492 182.56V44.05C492 40.8674 490.736 37.8151 488.485 35.5647C486.235 33.3143 483.183 32.05 480 32.05H424C420.817 32.05 417.765 33.3143 415.515 35.5647C413.264 37.8151 412 40.8674 412 44.05V116.66L322.47 43C313.878 35.9298 303.097 32.0641 291.97 32.0641C280.843 32.0641 270.062 35.9298 261.47 43L8.33997 251.47C7.12485 252.474 6.11952 253.708 5.38144 255.101C4.64336 256.494 4.18699 258.019 4.03841 259.588C3.88982 261.158 4.05193 262.741 4.51548 264.248C4.97902 265.755 5.73492 267.155 6.73997 268.37L32.24 299.37C33.2423 300.589 34.4751 301.598 35.868 302.34C37.2608 303.081 38.7862 303.541 40.3569 303.692C41.9276 303.844 43.5127 303.684 45.0216 303.222C46.5304 302.76 47.9333 302.005 49.15 301L284.37 107.26C286.537 105.513 289.237 104.561 292.02 104.561C294.803 104.561 297.503 105.513 299.67 107.26L534.9 301C536.115 302.005 537.515 302.761 539.022 303.224C540.529 303.688 542.112 303.85 543.682 303.702C545.251 303.553 546.776 303.097 548.169 302.359C549.562 301.62 550.796 300.615 551.8 299.4L577.3 268.4C578.304 267.178 579.057 265.771 579.515 264.257C579.973 262.744 580.127 261.155 579.969 259.582C579.811 258.008 579.344 256.482 578.594 255.09C577.844 253.698 576.827 252.468 575.6 251.47V251.47Z" fill="#1E4D45"/>
</g>
<defs>
<filter id="filter0_d" x="0" y="0" width="584" height="520" filterUnits="userSpaceOnUse" color-interpolation-filters="sRGB">
<feFlood flood-opacity="0" result="BackgroundImageFix"/>
<feColorMatrix in="SourceAlpha" type="matrix" values="0 0 0 0 0 0 0 0 0 0 0 0 0 0 0 0 0 0 127 0"/>
<feOffset dy="4"/>
<feGaussianBlur stdDeviation="2"/>
<feColorMatrix type="matrix" values="0 0 0 0 0 0 0 0 0 0 0 0 0 0 0 0 0 0 0.25 0"/>
<feBlend mode="normal" in2="BackgroundImageFix" result="effect1_dropShadow"/>
<feBlend mode="normal" in="SourceGraphic" in2="effect1_dropShadow" result="shape"/>
</filter>
<clipPath id="clip0">
<rect width="576" height="512" fill="white" transform="translate(4)"/>
</clipPath>
</defs>
</svg>
