<svg width="512" height="512" viewBox="0 0 512 512" fill="none" xmlns="http://www.w3.org/2000/svg">
<path d="M504 256C504 392.997 392.957 504 256 504C119.043 504 8 392.997 8 256C8 119.083 119.043 8 256 8C392.957 8 504 119.083 504 256ZM256 306C230.595 306 210 326.595 210 352C210 377.405 230.595 398 256 398C281.405 398 302 377.405 302 352C302 326.595 281.405 306 256 306ZM212.327 140.654L219.745 276.654C220.092 283.018 225.354 288 231.727 288H280.273C286.646 288 291.908 283.018 292.255 276.654L299.673 140.654C300.048 133.78 294.575 128 287.691 128H224.308C217.424 128 211.952 133.78 212.327 140.654V140.654Z" fill="#1E4D45"/>
</svg>
