<svg width="616" height="385" viewBox="0 0 616 385" fill="none" xmlns="http://www.w3.org/2000/svg">
<path d="M148.6 240C156.8 308.5 216 355.5 294.6 351.3C345.8 394.6 431.4 397.1 481 345.7C550.2 346.8 599.5 301.1 612.5 246.2C627.3 183.7 594.3 113.7 520.4 91.1C487.4 2.99999 389 -10.4 333.9 6.09998C276.6 23.4 249.6 59.3 234.6 115.8C226.8 118.5 208.1 124.7 189.6 139.9C201.3 139.9 204.8 148.8 204.8 159.4V179.8C204.8 190.5 196.1 199.3 185.3 199.3H165.1C154.4 199.3 145.6 193.3 145.6 182.6V176H98.8C95 176 88 180.3 88 187.9V228.3C88 234.7 93.3 240.1 99.7 240.1H148.6V240ZM376 248C365.3 294.3 397.7 320.4 431.3 334.8C324.1 368.6 259.7 284 296 224C262.8 245.6 262.3 295.2 266.8 316.9C248.9 304.5 213 284.5 209.4 237.1C206.4 197.2 230.9 161.4 266.4 143.2C297 127.4 369.9 134.7 400 184C385.9 136 346.2 113.9 298.2 109.2C329.1 78.5 362.6 58.9 412.4 65.5C482.2 74.8 545.6 148.3 480.1 216C515.1 199.7 528.8 161.6 527.6 139.1L538.1 158.7C549.9 180.7 553.3 206.3 547.5 230.7C538.3 269.7 506.9 299.5 467.8 307.2C435.7 313.5 384.7 302.1 376 248V248ZM128 144H88.2C79.3 144 72 136.7 72 127.8V88.2C72 79.3 79.3 72 88.2 72H128C136.9 72 144.2 79.3 144.2 88.2V127.8C144.2 136.7 136.9 144 128 144V144ZM10.1 104C4.5 104 0 99.5 0 93.9V66.1C0 60.5 4.5 56 10.1 56H37.8C43.3 56 47.9 60.5 47.9 66.1V93.9C47.9 99.5 43.4 104 37.8 104H10.1ZM168 78.7V57.3C168 52.2 172.2 48 177.3 48H198.7C203.8 48 208 52.2 208 57.3V78.7C208 83.8 203.8 88 198.7 88H177.3C172.2 88 168 83.8 168 78.7ZM56 171.5V196.5C56 202.8 50.9 208 44.6 208H19.4C13.1 208 8 202.8 8 196.5V171.5C8 165.2 13.1 160 19.4 160H44.5C50.9 160 56 165.2 56 171.5Z" fill="#1E4D45"/>
</svg>
